# xmcd
#
# Track frame offsets: 
#        150
#        22929
#        50126
#        69804
#        89892
#        109414
#        130534
#        151196
#        175814
#        202063
#        229874
#        252783
#        275754
#        291676
#        315677
#        334634
#
# Disc length: 4777 seconds
#
# Revision: 0
# Processed by: cddbd v1.5.2PL0 Copyright (c) Steve Scherf et al.
# Submitted via: ExactAudioCopyFreeDBPlugin 1.0
#
DISCID=ef12a710
DTITLE=Mabi' Zouk - Mabi' Zouk and love
DYEAR=2010
DGENRE=Country
TTITLE0=Unknown Artist - Sabrina
TTITLE1=Unknown Artist - Je t'adore
TTITLE2=Unknown Artist - Souvenir magique
TTITLE3=Unknown Artist - Amour interdit
TTITLE4=Unknown Artist - Je te donne
TTITLE5=Unknown Artist - An ti péyi la
TTITLE6=Unknown Artist - Tan zan tan
TTITLE7=Unknown Artist - J'aurais tant voulu
TTITLE8=Unknown Artist - Pran kè an mwen
TTITLE9=Unknown Artist - Tiré chenn la
TTITLE10=Unknown Artist - Sé va la vi
TTITLE11=Unknown Artist - zafan inosan
TTITLE12=Unknown Artist - pouki poukaw
TTITLE13=Unknown Artist - an té ké vlé
TTITLE14=Unknown Artist - Dezèpwa
TTITLE15=Unknown Artist - A pa jé
EXTD=
EXTT0=
EXTT1=
EXTT2=
EXTT3=
EXTT4=
EXTT5=
EXTT6=
EXTT7=
EXTT8=
EXTT9=
EXTT10=
EXTT11=
EXTT12=
EXTT13=
EXTT14=
EXTT15=
PLAYORDER=
